G75*
%MOIN*%
%OFA0B0*%
%FSLAX25Y25*%
%IPPOS*%
%LPD*%
%AMOC8*
5,1,8,0,0,1.08239X$1,22.5*
%
%ADD10R,0.10000X0.04000*%
%ADD11R,0.03150X0.01378*%
%ADD12R,0.06299X0.07087*%
%ADD13R,0.07087X0.06299*%
%ADD14R,0.05512X0.04724*%
%ADD15R,0.02756X0.05906*%
%ADD16R,0.03937X0.02362*%
%ADD17R,0.03937X0.03150*%
%ADD18R,0.03000X0.06000*%
%ADD19R,0.01102X0.03150*%
%ADD20R,0.03150X0.01102*%
%ADD21R,0.07087X0.07087*%
%ADD22R,0.07087X0.07874*%
%ADD23R,0.07874X0.07087*%
%ADD24R,0.07874X0.07874*%
%ADD25R,0.07480X0.04331*%
%ADD26R,0.09843X0.03937*%
%ADD27R,0.23622X0.09843*%
%ADD28R,0.02165X0.04724*%
%ADD29R,0.05000X0.05787*%
%ADD30R,0.03937X0.18110*%
%ADD31R,0.06299X0.13386*%
%ADD32R,0.04724X0.05512*%
%ADD33R,0.05512X0.01378*%
%ADD34R,0.07480X0.07087*%
%ADD35R,0.07480X0.07480*%
D10*
X0016000Y0156801D03*
X0016000Y0182801D03*
D11*
X0012850Y0142360D03*
X0012850Y0139801D03*
X0012850Y0137242D03*
X0019150Y0137242D03*
X0019150Y0139801D03*
X0019150Y0142360D03*
D12*
X0060488Y0149801D03*
X0060488Y0159801D03*
X0071512Y0159801D03*
X0071512Y0149801D03*
X0100488Y0131301D03*
X0111512Y0131301D03*
X0096512Y0119801D03*
X0085488Y0119801D03*
X0026512Y0074801D03*
X0015488Y0074801D03*
X0015488Y0064801D03*
X0015488Y0054801D03*
X0026512Y0054801D03*
X0026512Y0064801D03*
X0045488Y0064801D03*
X0045488Y0054801D03*
X0056512Y0054801D03*
X0056512Y0064801D03*
X0110488Y0033801D03*
X0121512Y0033801D03*
X0141988Y0034301D03*
X0153012Y0034301D03*
X0160488Y0079801D03*
X0171512Y0079801D03*
D13*
X0146000Y0094289D03*
X0136000Y0094289D03*
X0136000Y0105313D03*
X0146000Y0105313D03*
X0121000Y0105313D03*
X0121000Y0094289D03*
X0106000Y0099289D03*
X0106000Y0110313D03*
X0089500Y0151289D03*
X0089500Y0162313D03*
X0028500Y0123813D03*
X0028500Y0112789D03*
X0028500Y0100313D03*
X0028500Y0089289D03*
X0046000Y0090313D03*
X0056000Y0090313D03*
X0056000Y0079289D03*
X0046000Y0079289D03*
D14*
X0171000Y0065707D03*
X0171000Y0053895D03*
X0171000Y0040707D03*
X0171000Y0028895D03*
D15*
X0163358Y0172411D03*
X0151547Y0172411D03*
X0145642Y0172411D03*
D16*
X0140130Y0183238D03*
X0168870Y0183238D03*
D17*
X0168870Y0174970D03*
X0140130Y0174970D03*
D18*
X0015000Y0018801D03*
X0030000Y0018801D03*
X0030000Y0040801D03*
X0015000Y0040801D03*
D19*
X0076236Y0052084D03*
X0078205Y0052084D03*
X0080173Y0052084D03*
X0082142Y0052084D03*
X0084110Y0052084D03*
X0086079Y0052084D03*
X0088047Y0052084D03*
X0090016Y0052084D03*
X0091984Y0052084D03*
X0093953Y0052084D03*
X0095921Y0052084D03*
X0097890Y0052084D03*
X0099858Y0052084D03*
X0101827Y0052084D03*
X0103795Y0052084D03*
X0105764Y0052084D03*
X0105764Y0087518D03*
X0103795Y0087518D03*
X0101827Y0087518D03*
X0099858Y0087518D03*
X0097890Y0087518D03*
X0095921Y0087518D03*
X0093953Y0087518D03*
X0091984Y0087518D03*
X0090016Y0087518D03*
X0088047Y0087518D03*
X0086079Y0087518D03*
X0084110Y0087518D03*
X0082142Y0087518D03*
X0080173Y0087518D03*
X0078205Y0087518D03*
X0076236Y0087518D03*
D20*
X0073283Y0084565D03*
X0073283Y0082596D03*
X0073283Y0080628D03*
X0073283Y0078659D03*
X0073283Y0076691D03*
X0073283Y0074722D03*
X0073283Y0072754D03*
X0073283Y0070785D03*
X0073283Y0068817D03*
X0073283Y0066848D03*
X0073283Y0064880D03*
X0073283Y0062911D03*
X0073283Y0060943D03*
X0073283Y0058974D03*
X0073283Y0057006D03*
X0073283Y0055037D03*
X0108717Y0055037D03*
X0108717Y0057006D03*
X0108717Y0058974D03*
X0108717Y0060943D03*
X0108717Y0062911D03*
X0108717Y0064880D03*
X0108717Y0066848D03*
X0108717Y0068817D03*
X0108717Y0070785D03*
X0108717Y0072754D03*
X0108717Y0074722D03*
X0108717Y0076691D03*
X0108717Y0078659D03*
X0108717Y0080628D03*
X0108717Y0082596D03*
X0108717Y0084565D03*
D21*
X0100449Y0079250D03*
X0081551Y0079250D03*
X0081551Y0060352D03*
X0100449Y0060352D03*
D22*
X0100449Y0069801D03*
X0081551Y0069801D03*
D23*
X0091000Y0060352D03*
X0091000Y0079250D03*
D24*
X0091000Y0069801D03*
D25*
X0093283Y0096773D03*
X0093283Y0105829D03*
X0078717Y0105829D03*
X0078717Y0096773D03*
D26*
X0076000Y0044801D03*
X0076000Y0034801D03*
D27*
X0056000Y0039801D03*
D28*
X0078260Y0130183D03*
X0082000Y0130183D03*
X0085740Y0130183D03*
X0085740Y0140420D03*
X0078260Y0140420D03*
X0162260Y0104919D03*
X0169740Y0104919D03*
X0169740Y0094683D03*
X0166000Y0094683D03*
X0162260Y0094683D03*
D29*
X0074465Y0179801D03*
X0057535Y0179801D03*
D30*
X0112063Y0155734D03*
X0119937Y0155734D03*
D31*
X0129386Y0176207D03*
X0102614Y0176207D03*
D32*
X0093906Y0172801D03*
X0082094Y0172801D03*
D33*
X0158567Y0153919D03*
X0158567Y0151360D03*
X0158567Y0148801D03*
X0158567Y0146242D03*
X0158567Y0143683D03*
D34*
X0169000Y0133053D03*
X0169000Y0164549D03*
D35*
X0169000Y0153801D03*
X0169000Y0143801D03*
M02*
