G75*
%MOIN*%
%OFA0B0*%
%FSLAX25Y25*%
%IPPOS*%
%LPD*%
%AMOC8*
5,1,8,0,0,1.08239X$1,22.5*
%
%ADD10C,0.00800*%
%ADD11C,0.00500*%
%ADD12C,0.00600*%
D10*
X0017618Y0019801D02*
X0027382Y0019801D01*
X0032500Y0023738D02*
X0032500Y0035864D01*
X0027500Y0039801D02*
X0017618Y0039801D01*
X0012500Y0035864D02*
X0012500Y0023738D01*
X0017500Y0029801D02*
X0017502Y0029942D01*
X0017508Y0030083D01*
X0017518Y0030223D01*
X0017532Y0030363D01*
X0017550Y0030503D01*
X0017571Y0030642D01*
X0017597Y0030781D01*
X0017626Y0030919D01*
X0017660Y0031055D01*
X0017697Y0031191D01*
X0017738Y0031326D01*
X0017783Y0031460D01*
X0017832Y0031592D01*
X0017884Y0031723D01*
X0017940Y0031852D01*
X0018000Y0031979D01*
X0018063Y0032105D01*
X0018129Y0032229D01*
X0018200Y0032352D01*
X0018273Y0032472D01*
X0018350Y0032590D01*
X0018430Y0032706D01*
X0018514Y0032819D01*
X0018600Y0032930D01*
X0018690Y0033039D01*
X0018783Y0033145D01*
X0018878Y0033248D01*
X0018977Y0033349D01*
X0019078Y0033447D01*
X0019182Y0033542D01*
X0019289Y0033634D01*
X0019398Y0033723D01*
X0019510Y0033808D01*
X0019624Y0033891D01*
X0019740Y0033971D01*
X0019859Y0034047D01*
X0019980Y0034119D01*
X0020102Y0034189D01*
X0020227Y0034254D01*
X0020353Y0034317D01*
X0020481Y0034375D01*
X0020611Y0034430D01*
X0020742Y0034482D01*
X0020875Y0034529D01*
X0021009Y0034573D01*
X0021144Y0034614D01*
X0021280Y0034650D01*
X0021417Y0034682D01*
X0021555Y0034711D01*
X0021693Y0034736D01*
X0021833Y0034756D01*
X0021973Y0034773D01*
X0022113Y0034786D01*
X0022254Y0034795D01*
X0022394Y0034800D01*
X0022535Y0034801D01*
X0022676Y0034798D01*
X0022817Y0034791D01*
X0022957Y0034780D01*
X0023097Y0034765D01*
X0023237Y0034746D01*
X0023376Y0034724D01*
X0023514Y0034697D01*
X0023652Y0034667D01*
X0023788Y0034632D01*
X0023924Y0034594D01*
X0024058Y0034552D01*
X0024192Y0034506D01*
X0024324Y0034457D01*
X0024454Y0034403D01*
X0024583Y0034346D01*
X0024710Y0034286D01*
X0024836Y0034222D01*
X0024959Y0034154D01*
X0025081Y0034083D01*
X0025201Y0034009D01*
X0025318Y0033931D01*
X0025433Y0033850D01*
X0025546Y0033766D01*
X0025657Y0033679D01*
X0025765Y0033588D01*
X0025870Y0033495D01*
X0025973Y0033398D01*
X0026073Y0033299D01*
X0026170Y0033197D01*
X0026264Y0033092D01*
X0026355Y0032985D01*
X0026443Y0032875D01*
X0026528Y0032763D01*
X0026610Y0032648D01*
X0026689Y0032531D01*
X0026764Y0032412D01*
X0026836Y0032291D01*
X0026904Y0032168D01*
X0026969Y0032043D01*
X0027031Y0031916D01*
X0027088Y0031787D01*
X0027143Y0031657D01*
X0027193Y0031526D01*
X0027240Y0031393D01*
X0027283Y0031259D01*
X0027322Y0031123D01*
X0027357Y0030987D01*
X0027389Y0030850D01*
X0027416Y0030712D01*
X0027440Y0030573D01*
X0027460Y0030433D01*
X0027476Y0030293D01*
X0027488Y0030153D01*
X0027496Y0030012D01*
X0027500Y0029871D01*
X0027500Y0029731D01*
X0027496Y0029590D01*
X0027488Y0029449D01*
X0027476Y0029309D01*
X0027460Y0029169D01*
X0027440Y0029029D01*
X0027416Y0028890D01*
X0027389Y0028752D01*
X0027357Y0028615D01*
X0027322Y0028479D01*
X0027283Y0028343D01*
X0027240Y0028209D01*
X0027193Y0028076D01*
X0027143Y0027945D01*
X0027088Y0027815D01*
X0027031Y0027686D01*
X0026969Y0027559D01*
X0026904Y0027434D01*
X0026836Y0027311D01*
X0026764Y0027190D01*
X0026689Y0027071D01*
X0026610Y0026954D01*
X0026528Y0026839D01*
X0026443Y0026727D01*
X0026355Y0026617D01*
X0026264Y0026510D01*
X0026170Y0026405D01*
X0026073Y0026303D01*
X0025973Y0026204D01*
X0025870Y0026107D01*
X0025765Y0026014D01*
X0025657Y0025923D01*
X0025546Y0025836D01*
X0025433Y0025752D01*
X0025318Y0025671D01*
X0025201Y0025593D01*
X0025081Y0025519D01*
X0024959Y0025448D01*
X0024836Y0025380D01*
X0024710Y0025316D01*
X0024583Y0025256D01*
X0024454Y0025199D01*
X0024324Y0025145D01*
X0024192Y0025096D01*
X0024058Y0025050D01*
X0023924Y0025008D01*
X0023788Y0024970D01*
X0023652Y0024935D01*
X0023514Y0024905D01*
X0023376Y0024878D01*
X0023237Y0024856D01*
X0023097Y0024837D01*
X0022957Y0024822D01*
X0022817Y0024811D01*
X0022676Y0024804D01*
X0022535Y0024801D01*
X0022394Y0024802D01*
X0022254Y0024807D01*
X0022113Y0024816D01*
X0021973Y0024829D01*
X0021833Y0024846D01*
X0021693Y0024866D01*
X0021555Y0024891D01*
X0021417Y0024920D01*
X0021280Y0024952D01*
X0021144Y0024988D01*
X0021009Y0025029D01*
X0020875Y0025073D01*
X0020742Y0025120D01*
X0020611Y0025172D01*
X0020481Y0025227D01*
X0020353Y0025285D01*
X0020227Y0025348D01*
X0020102Y0025413D01*
X0019980Y0025483D01*
X0019859Y0025555D01*
X0019740Y0025631D01*
X0019624Y0025711D01*
X0019510Y0025794D01*
X0019398Y0025879D01*
X0019289Y0025968D01*
X0019182Y0026060D01*
X0019078Y0026155D01*
X0018977Y0026253D01*
X0018878Y0026354D01*
X0018783Y0026457D01*
X0018690Y0026563D01*
X0018600Y0026672D01*
X0018514Y0026783D01*
X0018430Y0026896D01*
X0018350Y0027012D01*
X0018273Y0027130D01*
X0018200Y0027250D01*
X0018129Y0027373D01*
X0018063Y0027497D01*
X0018000Y0027623D01*
X0017940Y0027750D01*
X0017884Y0027879D01*
X0017832Y0028010D01*
X0017783Y0028142D01*
X0017738Y0028276D01*
X0017697Y0028411D01*
X0017660Y0028547D01*
X0017626Y0028683D01*
X0017597Y0028821D01*
X0017571Y0028960D01*
X0017550Y0029099D01*
X0017532Y0029239D01*
X0017518Y0029379D01*
X0017508Y0029519D01*
X0017502Y0029660D01*
X0017500Y0029801D01*
X0046000Y0022301D02*
X0046000Y0017301D01*
X0048500Y0014801D01*
X0053500Y0014801D01*
X0056000Y0017301D01*
X0058500Y0014801D01*
X0063500Y0014801D01*
X0066000Y0017301D01*
X0068500Y0014801D01*
X0073500Y0014801D01*
X0076000Y0017301D01*
X0078500Y0014801D01*
X0083500Y0014801D01*
X0086000Y0017301D01*
X0088500Y0014801D01*
X0093500Y0014801D01*
X0096000Y0017301D01*
X0098500Y0014801D01*
X0103500Y0014801D01*
X0106000Y0017301D01*
X0108500Y0014801D01*
X0113500Y0014801D01*
X0116000Y0017301D01*
X0118500Y0014801D01*
X0123500Y0014801D01*
X0126000Y0017301D01*
X0128500Y0014801D01*
X0133500Y0014801D01*
X0136000Y0017301D01*
X0138500Y0014801D01*
X0143500Y0014801D01*
X0146000Y0017301D01*
X0146000Y0022301D01*
X0143500Y0024801D01*
X0138500Y0024801D01*
X0136000Y0022301D01*
X0133500Y0024801D01*
X0128500Y0024801D01*
X0126000Y0022301D01*
X0123500Y0024801D01*
X0118500Y0024801D01*
X0116000Y0022301D01*
X0113500Y0024801D01*
X0108500Y0024801D01*
X0106000Y0022301D01*
X0103500Y0024801D01*
X0098500Y0024801D01*
X0096000Y0022301D01*
X0093500Y0024801D01*
X0088500Y0024801D01*
X0086000Y0022301D01*
X0083500Y0024801D01*
X0078500Y0024801D01*
X0076000Y0022301D01*
X0073500Y0024801D01*
X0068500Y0024801D01*
X0066000Y0022301D01*
X0063500Y0024801D01*
X0058500Y0024801D01*
X0056000Y0022301D01*
X0053500Y0024801D01*
X0048500Y0024801D01*
X0046000Y0022301D01*
X0073283Y0052084D02*
X0074465Y0052084D01*
X0073283Y0052084D02*
X0073283Y0053266D01*
X0107535Y0052084D02*
X0108717Y0052084D01*
X0108717Y0053266D01*
X0108717Y0086336D02*
X0108717Y0087518D01*
X0107535Y0087518D01*
X0095843Y0100120D02*
X0095843Y0102482D01*
X0088362Y0107600D02*
X0083638Y0107600D01*
X0076157Y0102482D02*
X0076157Y0100120D01*
X0083638Y0095002D02*
X0088362Y0095002D01*
X0074465Y0087518D02*
X0073283Y0086336D01*
X0043500Y0124801D02*
X0038500Y0124801D01*
X0036000Y0127301D01*
X0036000Y0132301D01*
X0038500Y0134801D01*
X0036000Y0137301D01*
X0036000Y0142301D01*
X0038500Y0144801D01*
X0036000Y0147301D01*
X0036000Y0152301D01*
X0038500Y0154801D01*
X0036000Y0157301D01*
X0036000Y0162301D01*
X0038500Y0164801D01*
X0036000Y0167301D01*
X0036000Y0172301D01*
X0038500Y0174801D01*
X0036000Y0177301D01*
X0036000Y0182301D01*
X0038500Y0184801D01*
X0043500Y0184801D01*
X0046000Y0182301D01*
X0046000Y0177301D01*
X0043500Y0174801D01*
X0046000Y0172301D01*
X0046000Y0167301D01*
X0043500Y0164801D01*
X0046000Y0162301D01*
X0046000Y0157301D01*
X0043500Y0154801D01*
X0046000Y0152301D01*
X0046000Y0147301D01*
X0043500Y0144801D01*
X0046000Y0142301D01*
X0046000Y0137301D01*
X0043500Y0134801D01*
X0046000Y0132301D01*
X0046000Y0127301D01*
X0043500Y0124801D01*
X0076400Y0133610D02*
X0076400Y0136992D01*
X0080943Y0138492D02*
X0083057Y0138492D01*
X0087600Y0136992D02*
X0087600Y0133610D01*
X0100252Y0152584D02*
X0103402Y0152584D01*
X0103402Y0162427D01*
X0108126Y0162427D01*
X0100252Y0166364D02*
X0100252Y0152584D01*
X0089181Y0170045D02*
X0089181Y0172801D01*
X0086819Y0170439D01*
X0086819Y0175163D01*
X0089181Y0172801D01*
X0089181Y0175557D01*
X0075055Y0175864D02*
X0075055Y0174092D01*
X0056945Y0174092D01*
X0056945Y0175864D01*
X0062063Y0175864D02*
X0062063Y0183738D01*
X0056945Y0183738D02*
X0056945Y0185510D01*
X0075055Y0185510D01*
X0075055Y0183738D01*
X0108126Y0182112D02*
X0123874Y0182112D01*
X0141311Y0180482D02*
X0141311Y0178120D01*
X0143870Y0184419D02*
X0165130Y0184419D01*
X0167689Y0180482D02*
X0167689Y0178120D01*
X0160406Y0174183D02*
X0154500Y0174183D01*
X0157780Y0162187D02*
X0164079Y0162187D01*
X0163291Y0157462D02*
X0157780Y0157462D01*
X0157780Y0162187D01*
X0163291Y0157462D02*
X0163291Y0140140D01*
X0157780Y0140140D01*
X0157780Y0135415D01*
X0164079Y0135415D01*
X0174709Y0135415D02*
X0174709Y0162187D01*
X0173500Y0124801D02*
X0178500Y0124801D01*
X0181000Y0122301D01*
X0181000Y0117301D01*
X0178500Y0114801D01*
X0173500Y0114801D01*
X0171000Y0117301D01*
X0168500Y0114801D01*
X0163500Y0114801D01*
X0161000Y0117301D01*
X0158500Y0114801D01*
X0153500Y0114801D01*
X0151000Y0117301D01*
X0148500Y0114801D01*
X0143500Y0114801D01*
X0141000Y0117301D01*
X0138500Y0114801D01*
X0133500Y0114801D01*
X0131000Y0117301D01*
X0128500Y0114801D01*
X0123500Y0114801D01*
X0121000Y0117301D01*
X0121000Y0122301D01*
X0123500Y0124801D01*
X0128500Y0124801D01*
X0131000Y0122301D01*
X0133500Y0124801D01*
X0138500Y0124801D01*
X0141000Y0122301D01*
X0143500Y0124801D01*
X0148500Y0124801D01*
X0151000Y0122301D01*
X0153500Y0124801D01*
X0158500Y0124801D01*
X0161000Y0122301D01*
X0163500Y0124801D01*
X0168500Y0124801D01*
X0171000Y0122301D01*
X0173500Y0124801D01*
X0131748Y0152584D02*
X0131748Y0166364D01*
X0128598Y0162427D02*
X0128598Y0152584D01*
X0131748Y0152584D01*
X0128598Y0162427D02*
X0123874Y0162427D01*
X0167063Y0069250D02*
X0167063Y0063738D01*
X0168638Y0060982D02*
X0171000Y0058620D01*
X0173362Y0060982D01*
X0168638Y0060982D01*
X0168244Y0058620D02*
X0171000Y0058620D01*
X0173756Y0058620D01*
X0174937Y0055864D02*
X0174937Y0050352D01*
X0167063Y0050352D01*
X0167063Y0055864D01*
X0174937Y0063738D02*
X0174937Y0069250D01*
X0167063Y0069250D01*
X0167063Y0044250D02*
X0167063Y0038738D01*
X0168638Y0035982D02*
X0171000Y0033620D01*
X0173362Y0035982D01*
X0168638Y0035982D01*
X0168244Y0033620D02*
X0171000Y0033620D01*
X0173756Y0033620D01*
X0174937Y0030864D02*
X0174937Y0025352D01*
X0167063Y0025352D01*
X0167063Y0030864D01*
X0174937Y0038738D02*
X0174937Y0044250D01*
X0167063Y0044250D01*
X0020500Y0160301D02*
X0020500Y0179301D01*
X0017500Y0176801D02*
X0016000Y0178301D01*
X0014500Y0176801D01*
X0016000Y0178301D02*
X0016000Y0174801D01*
X0011500Y0179301D02*
X0011500Y0160301D01*
D11*
X0013539Y0143738D02*
X0018461Y0143738D01*
X0015312Y0142793D02*
X0015314Y0142819D01*
X0015320Y0142845D01*
X0015329Y0142869D01*
X0015343Y0142892D01*
X0015359Y0142913D01*
X0015378Y0142931D01*
X0015400Y0142945D01*
X0015424Y0142957D01*
X0015449Y0142965D01*
X0015475Y0142969D01*
X0015501Y0142969D01*
X0015527Y0142965D01*
X0015552Y0142957D01*
X0015576Y0142945D01*
X0015598Y0142931D01*
X0015617Y0142913D01*
X0015633Y0142892D01*
X0015647Y0142869D01*
X0015656Y0142845D01*
X0015662Y0142819D01*
X0015664Y0142793D01*
X0015662Y0142767D01*
X0015656Y0142741D01*
X0015647Y0142717D01*
X0015633Y0142694D01*
X0015617Y0142673D01*
X0015598Y0142655D01*
X0015576Y0142641D01*
X0015552Y0142629D01*
X0015527Y0142621D01*
X0015501Y0142617D01*
X0015475Y0142617D01*
X0015449Y0142621D01*
X0015424Y0142629D01*
X0015400Y0142641D01*
X0015378Y0142655D01*
X0015359Y0142673D01*
X0015343Y0142694D01*
X0015329Y0142717D01*
X0015320Y0142741D01*
X0015314Y0142767D01*
X0015312Y0142793D01*
X0013539Y0135864D02*
X0018461Y0135864D01*
D12*
X0160402Y0102892D02*
X0160402Y0096710D01*
X0160772Y0096710D01*
X0163945Y0096710D02*
X0164315Y0096710D01*
X0167685Y0096710D02*
X0168055Y0096710D01*
X0171228Y0096710D02*
X0171598Y0096710D01*
X0171598Y0102892D01*
X0171228Y0102892D01*
X0168055Y0102892D02*
X0163945Y0102892D01*
X0160772Y0102892D02*
X0160402Y0102892D01*
M02*
