%
M48
M72
T01C0.01700
T02C0.03543
T03C0.04000
%
T01
X36500Y34301
X15000Y47301
X36000Y79301
X24500Y81801
X56000Y104801
X41000Y114301
X46500Y119301
X24000Y134801
X24000Y147301
X70500Y132301
X74500Y140801
X81000Y159801
X101000Y146301
X116000Y170801
X139000Y164301
X138000Y143801
X151000Y111801
X166000Y100801
X157000Y93301
X140500Y84801
X125000Y84801
X121000Y88301
X118500Y81301
X109000Y90801
X76500Y112301
X71000Y114801
X68500Y62801
X89000Y39301
X85000Y29301
X103000Y29301
X116000Y44801
X111000Y48301
X175500Y72301
X86500Y179801
T02
X148594Y179301
X160406Y179301
T03
X156000Y119801
X146000Y119801
X136000Y119801
X126000Y119801
X166000Y119801
X176000Y119801
X141500Y67301
X131500Y67301
X131500Y57301
X141500Y57301
X141500Y47301
X131500Y47301
X131000Y19801
X121000Y19801
X111000Y19801
X101000Y19801
X91000Y19801
X81000Y19801
X71000Y19801
X61000Y19801
X51000Y19801
X141000Y19801
X41000Y129801
X41000Y139801
X41000Y149801
X41000Y159801
X41000Y169801
X41000Y179801
M30
